<svg width="64" height="64" viewBox="0 0 64 64" fill="none" xmlns="http://www.w3.org/2000/svg">
<path fill-rule="evenodd" clip-rule="evenodd" d="M32.0003 2.66663C15.8003 2.66663 2.66699 15.8 2.66699 32C2.66699 48.2 15.8003 61.3333 32.0003 61.3333C48.2003 61.3333 61.3337 48.2 61.3337 32C61.3337 15.8 48.2003 2.66663 32.0003 2.66663ZM34.667 42.6666C34.667 43.3739 34.386 44.0522 33.8859 44.5522C33.3858 45.0523 32.7076 45.3333 32.0003 45.3333C31.2931 45.3333 30.6148 45.0523 30.1147 44.5522C29.6146 44.0522 29.3337 43.3739 29.3337 42.6666V34.6666H21.3337C20.6264 34.6666 19.9481 34.3857 19.448 33.8856C18.9479 33.3855 18.667 32.7072 18.667 32C18.667 31.2927 18.9479 30.6144 19.448 30.1143C19.9481 29.6142 20.6264 29.3333 21.3337 29.3333H29.3337V21.3333C29.3337 20.626 29.6146 19.9478 30.1147 19.4477C30.6148 18.9476 31.2931 18.6666 32.0003 18.6666C32.7076 18.6666 33.3858 18.9476 33.8859 19.4477C34.386 19.9478 34.667 20.626 34.667 21.3333V29.3333H42.667C43.3742 29.3333 44.0525 29.6142 44.5526 30.1143C45.0527 30.6144 45.3337 31.2927 45.3337 32C45.3337 32.7072 45.0527 33.3855 44.5526 33.8856C44.0525 34.3857 43.3742 34.6666 42.667 34.6666H34.667V42.6666Z" fill="url(#paint0_linear_11_55)"/>
<defs>
<linearGradient id="paint0_linear_11_55" x1="2.66699" y1="32" x2="61.3337" y2="32" gradientUnits="userSpaceOnUse">
<stop stop-color="#2AF598"/>
<stop offset="1" stop-color="#009EFD"/>
</linearGradient>
</defs>
</svg>
