<svg width="24" height="25" viewBox="0 0 24 25" fill="none" xmlns="http://www.w3.org/2000/svg">
<path d="M21.2841 8.55056L15.3333 7.68571L12.6731 2.29275C12.6005 2.14509 12.4809 2.02556 12.3333 1.9529C11.963 1.77009 11.513 1.92243 11.3278 2.29275L8.66766 7.68571L2.71688 8.55056C2.55282 8.574 2.40281 8.65134 2.28797 8.76853C2.14913 8.91123 2.07262 9.10322 2.07526 9.3023C2.0779 9.50138 2.15946 9.69127 2.30203 9.83025L6.6075 14.0279L5.59031 19.9552C5.56646 20.0931 5.58172 20.2349 5.63436 20.3646C5.687 20.4942 5.77491 20.6066 5.88813 20.6888C6.00135 20.771 6.13535 20.8199 6.27492 20.8298C6.4145 20.8398 6.55407 20.8104 6.67781 20.7451L12.0005 17.9467L17.3231 20.7451C17.4684 20.8224 17.6372 20.8482 17.7989 20.8201C18.2067 20.7498 18.4809 20.3631 18.4106 19.9552L17.3934 14.0279L21.6989 9.83025C21.8161 9.7154 21.8934 9.5654 21.9169 9.40134C21.9802 8.99118 21.6942 8.6115 21.2841 8.55056Z" fill="#F2C94C"/>
</svg>
