<svg width="50" height="50" viewBox="0 0 50 50" fill="none" xmlns="http://www.w3.org/2000/svg">
<circle cx="25" cy="25" r="25" fill="url(#paint0_linear_2_20)"/>
<path d="M34.7949 33.9182L30.0581 29.1814L34.7949 33.9182ZM30.0581 29.1814C30.8184 28.4211 31.4215 27.5185 31.8329 26.5251C32.2444 25.5318 32.4562 24.4671 32.4562 23.3919C32.4562 22.3167 32.2444 21.252 31.8329 20.2587C31.4215 19.2653 30.8184 18.3627 30.0581 17.6024C29.2978 16.8421 28.3952 16.239 27.4018 15.8276C26.4085 15.4161 25.3438 15.2043 24.2686 15.2043C23.1934 15.2043 22.1287 15.4161 21.1354 15.8276C20.142 16.239 19.2394 16.8421 18.4791 17.6024C16.9437 19.1379 16.0811 21.2204 16.0811 23.3919C16.0811 25.5634 16.9437 27.6459 18.4791 29.1814C20.0146 30.7168 22.0971 31.5794 24.2686 31.5794C26.4401 31.5794 28.5226 30.7168 30.0581 29.1814V29.1814Z" stroke="white" stroke-width="3" stroke-linecap="round" stroke-linejoin="round"/>
<defs>
<linearGradient id="paint0_linear_2_20" x1="0" y1="25" x2="50" y2="25" gradientUnits="userSpaceOnUse">
<stop stop-color="#2AF598"/>
<stop offset="1" stop-color="#009EFD"/>
</linearGradient>
</defs>
</svg>
