<svg width="145" height="48" viewBox="0 0 145 48" fill="none" xmlns="http://www.w3.org/2000/svg">
<rect y="0.646973" width="145" height="47" rx="23.5" fill="url(#paint0_linear_23_233)"/>
<path d="M30.4527 17.247C31.6127 17.247 32.6127 17.487 33.4527 17.967C34.2927 18.4336 34.9927 19.127 35.5527 20.047L34.2127 21.087C33.7194 20.2336 33.1594 19.6336 32.5327 19.287C31.9194 18.927 31.1727 18.747 30.2927 18.747C29.5861 18.747 28.9994 18.847 28.5327 19.047C28.0794 19.247 27.7461 19.5136 27.5327 19.847C27.3194 20.167 27.2127 20.5336 27.2127 20.947C27.2127 21.4136 27.3594 21.827 27.6527 22.187C27.9461 22.5336 28.5327 22.807 29.4127 23.007L32.2727 23.647C33.5394 23.927 34.4194 24.3536 34.9127 24.927C35.4194 25.487 35.6727 26.187 35.6727 27.027C35.6727 27.7736 35.4594 28.4403 35.0327 29.027C34.6194 29.6003 34.0327 30.047 33.2727 30.367C32.5127 30.687 31.6194 30.847 30.5927 30.847C29.6327 30.847 28.7861 30.7203 28.0527 30.467C27.3327 30.2003 26.7127 29.847 26.1927 29.407C25.6727 28.967 25.2461 28.4736 24.9127 27.927L26.3127 26.787C26.5661 27.2936 26.8927 27.7403 27.2927 28.127C27.6927 28.5136 28.1727 28.8136 28.7327 29.027C29.3061 29.2403 29.9594 29.347 30.6927 29.347C31.3727 29.347 31.9594 29.267 32.4527 29.107C32.9594 28.9336 33.3461 28.687 33.6127 28.367C33.8794 28.0336 34.0127 27.6336 34.0127 27.167C34.0127 26.7403 33.8727 26.3603 33.5927 26.027C33.3127 25.6803 32.7861 25.4203 32.0127 25.247L28.9127 24.547C28.0994 24.3603 27.4394 24.107 26.9327 23.787C26.4394 23.4536 26.0794 23.067 25.8527 22.627C25.6394 22.1736 25.5327 21.687 25.5327 21.167C25.5327 20.4603 25.7261 19.8136 26.1127 19.227C26.5127 18.627 27.0794 18.147 27.8127 17.787C28.5594 17.427 29.4394 17.247 30.4527 17.247ZM42.2476 30.847C41.6076 30.847 41.0009 30.727 40.4276 30.487C39.8676 30.247 39.4076 29.8603 39.0476 29.327C38.7009 28.7803 38.5276 28.0736 38.5276 27.207V20.647H40.1276V26.787C40.1276 27.8003 40.3476 28.5003 40.7876 28.887C41.2276 29.2603 41.8476 29.447 42.6476 29.447C43.0209 29.447 43.3876 29.387 43.7476 29.267C44.1076 29.1336 44.4276 28.9336 44.7076 28.667C45.0009 28.387 45.2276 28.0336 45.3876 27.607C45.5609 27.1803 45.6476 26.6736 45.6476 26.087V20.647H47.2476V30.647H45.8476L45.7476 29.127C45.4009 29.727 44.9276 30.167 44.3276 30.447C43.7409 30.7136 43.0476 30.847 42.2476 30.847ZM55.8713 30.847C55.3113 30.847 54.7913 30.747 54.3113 30.547C53.8313 30.347 53.418 30.067 53.0713 29.707C52.7247 29.347 52.4647 28.9403 52.2913 28.487L52.5113 28.207L52.3713 30.647H50.9713V16.047H52.5713V22.907L52.3713 22.607C52.638 21.9803 53.0847 21.467 53.7113 21.067C54.3513 20.6536 55.078 20.447 55.8913 20.447C56.718 20.447 57.478 20.6536 58.1713 21.067C58.8647 21.4803 59.418 22.0736 59.8313 22.847C60.2447 23.6203 60.4513 24.5536 60.4513 25.647C60.4513 26.727 60.238 27.6603 59.8113 28.447C59.398 29.2203 58.8447 29.8136 58.1513 30.227C57.458 30.6403 56.698 30.847 55.8713 30.847ZM55.7113 29.447C56.698 29.447 57.4647 29.1003 58.0113 28.407C58.5713 27.7136 58.8513 26.7936 58.8513 25.647C58.8513 24.5003 58.578 23.5803 58.0313 22.887C57.4847 22.1936 56.718 21.847 55.7313 21.847C55.1047 21.847 54.5513 22.007 54.0713 22.327C53.6047 22.647 53.238 23.0936 52.9713 23.667C52.7047 24.2403 52.5713 24.9136 52.5713 25.687C52.5713 26.447 52.698 27.1136 52.9513 27.687C53.218 28.247 53.5847 28.6803 54.0513 28.987C54.5313 29.2936 55.0847 29.447 55.7113 29.447ZM67.1104 30.847C66.1371 30.847 65.2371 30.6403 64.4104 30.227C63.5971 29.8136 62.9704 29.227 62.5304 28.467L63.8904 27.487C64.1837 28.1003 64.6104 28.5803 65.1704 28.927C65.7437 29.2736 66.4304 29.447 67.2304 29.447C67.9371 29.447 68.4904 29.3136 68.8904 29.047C69.2904 28.767 69.4904 28.407 69.4904 27.967C69.4904 27.687 69.3971 27.4336 69.2104 27.207C69.0371 26.967 68.6971 26.7936 68.1904 26.687L65.7904 26.187C64.8171 25.987 64.1171 25.6536 63.6904 25.187C63.2771 24.7203 63.0704 24.1403 63.0704 23.447C63.0704 22.9003 63.2237 22.4003 63.5304 21.947C63.8504 21.4936 64.2971 21.1336 64.8704 20.867C65.4571 20.587 66.1437 20.447 66.9304 20.447C67.9171 20.447 68.7504 20.6403 69.4304 21.027C70.1104 21.4136 70.6171 21.9603 70.9504 22.667L69.6104 23.547C69.3837 22.9603 69.0171 22.5336 68.5104 22.267C68.0037 21.987 67.4771 21.847 66.9304 21.847C66.4504 21.847 66.0371 21.9136 65.6904 22.047C65.3571 22.1803 65.0971 22.367 64.9104 22.607C64.7371 22.8336 64.6504 23.0936 64.6504 23.387C64.6504 23.6803 64.7504 23.9536 64.9504 24.207C65.1504 24.447 65.5237 24.6203 66.0704 24.727L68.5704 25.247C69.5037 25.4336 70.1571 25.7403 70.5304 26.167C70.9037 26.5936 71.0904 27.1136 71.0904 27.727C71.0904 28.3536 70.9237 28.907 70.5904 29.387C70.2571 29.8536 69.7904 30.2136 69.1904 30.467C68.5904 30.7203 67.8971 30.847 67.1104 30.847ZM78.1973 20.447C78.8906 20.447 79.4973 20.5536 80.0173 20.767C80.5506 20.9803 81.0106 21.287 81.3973 21.687C81.7839 22.087 82.0973 22.5603 82.3373 23.107L80.8173 23.827C80.6039 23.187 80.2773 22.7003 79.8373 22.367C79.4106 22.0203 78.8506 21.847 78.1573 21.847C77.4906 21.847 76.9173 22.0003 76.4373 22.307C75.9573 22.6003 75.5906 23.0336 75.3373 23.607C75.0839 24.167 74.9573 24.847 74.9573 25.647C74.9573 26.4336 75.0839 27.1136 75.3373 27.687C75.5906 28.2603 75.9573 28.7003 76.4373 29.007C76.9173 29.3003 77.4906 29.447 78.1573 29.447C78.6773 29.447 79.1239 29.367 79.4973 29.207C79.8839 29.047 80.1973 28.8136 80.4373 28.507C80.6906 28.2003 80.8639 27.827 80.9573 27.387L82.4373 27.907C82.2106 28.5203 81.8973 29.047 81.4973 29.487C81.1106 29.927 80.6373 30.267 80.0773 30.507C79.5306 30.7336 78.9039 30.847 78.1973 30.847C77.2639 30.847 76.4306 30.6403 75.6973 30.227C74.9639 29.8136 74.3906 29.2203 73.9773 28.447C73.5639 27.6603 73.3573 26.727 73.3573 25.647C73.3573 24.567 73.5639 23.6403 73.9773 22.867C74.3906 22.0803 74.9639 21.4803 75.6973 21.067C76.4306 20.6536 77.2639 20.447 78.1973 20.447ZM85.2487 30.647V20.647H86.5487L86.7687 22.287C87.0487 21.6736 87.4553 21.2136 87.9887 20.907C88.5353 20.6003 89.1953 20.447 89.9687 20.447C90.142 20.447 90.3287 20.4603 90.5287 20.487C90.742 20.5136 90.922 20.567 91.0687 20.647L90.7887 22.107C90.642 22.0536 90.482 22.0136 90.3087 21.987C90.1353 21.9603 89.8887 21.947 89.5687 21.947C89.1553 21.947 88.7353 22.067 88.3087 22.307C87.8953 22.547 87.5487 22.9136 87.2687 23.407C86.9887 23.887 86.8487 24.5003 86.8487 25.247V30.647H85.2487ZM94.2127 18.727C93.8527 18.727 93.5594 18.6203 93.3327 18.407C93.1194 18.1803 93.0127 17.887 93.0127 17.527C93.0127 17.167 93.1194 16.8803 93.3327 16.667C93.5594 16.4403 93.8527 16.327 94.2127 16.327C94.5727 16.327 94.8594 16.4403 95.0727 16.667C95.2994 16.8803 95.4127 17.167 95.4127 17.527C95.4127 17.887 95.2994 18.1803 95.0727 18.407C94.8594 18.6203 94.5727 18.727 94.2127 18.727ZM95.0127 20.647V30.647H93.4127V20.647H95.0127ZM103.625 30.847C103.065 30.847 102.545 30.747 102.065 30.547C101.585 30.347 101.172 30.067 100.825 29.707C100.479 29.347 100.219 28.9403 100.045 28.487L100.265 28.207L100.125 30.647H98.7252V16.047H100.325V22.907L100.125 22.607C100.392 21.9803 100.839 21.467 101.465 21.067C102.105 20.6536 102.832 20.447 103.645 20.447C104.472 20.447 105.232 20.6536 105.925 21.067C106.619 21.4803 107.172 22.0736 107.585 22.847C107.999 23.6203 108.205 24.5536 108.205 25.647C108.205 26.727 107.992 27.6603 107.565 28.447C107.152 29.2203 106.599 29.8136 105.905 30.227C105.212 30.6403 104.452 30.847 103.625 30.847ZM103.465 29.447C104.452 29.447 105.219 29.1003 105.765 28.407C106.325 27.7136 106.605 26.7936 106.605 25.647C106.605 24.5003 106.332 23.5803 105.785 22.887C105.239 22.1936 104.472 21.847 103.485 21.847C102.859 21.847 102.305 22.007 101.825 22.327C101.359 22.647 100.992 23.0936 100.725 23.667C100.459 24.2403 100.325 24.9136 100.325 25.687C100.325 26.447 100.452 27.1136 100.705 27.687C100.972 28.247 101.339 28.6803 101.805 28.987C102.285 29.2936 102.839 29.447 103.465 29.447ZM115.444 30.847C114.498 30.847 113.651 30.6403 112.904 30.227C112.171 29.8136 111.598 29.2203 111.184 28.447C110.771 27.6603 110.564 26.727 110.564 25.647C110.564 24.567 110.771 23.6403 111.184 22.867C111.598 22.0803 112.164 21.4803 112.884 21.067C113.604 20.6536 114.424 20.447 115.344 20.447C116.278 20.447 117.071 20.647 117.724 21.047C118.391 21.447 118.898 21.9936 119.244 22.687C119.591 23.367 119.764 24.1336 119.764 24.987C119.764 25.2136 119.758 25.4203 119.744 25.607C119.731 25.7936 119.711 25.9603 119.684 26.107H111.604V24.687H118.984L118.164 24.847C118.164 23.887 117.898 23.147 117.364 22.627C116.844 22.107 116.158 21.847 115.304 21.847C114.651 21.847 114.084 22.0003 113.604 22.307C113.138 22.6003 112.771 23.0336 112.504 23.607C112.251 24.167 112.124 24.847 112.124 25.647C112.124 26.4336 112.258 27.1136 112.524 27.687C112.791 28.2603 113.164 28.7003 113.644 29.007C114.138 29.3003 114.724 29.447 115.404 29.447C116.138 29.447 116.731 29.307 117.184 29.027C117.651 28.747 118.024 28.367 118.304 27.887L119.564 28.627C119.311 29.0803 118.984 29.4736 118.584 29.807C118.198 30.1403 117.738 30.4003 117.204 30.587C116.684 30.7603 116.098 30.847 115.444 30.847Z" fill="white"/>
<defs>
<linearGradient id="paint0_linear_23_233" x1="0" y1="24.147" x2="145" y2="24.147" gradientUnits="userSpaceOnUse">
<stop stop-color="#2AF598"/>
<stop offset="1" stop-color="#009EFD"/>
</linearGradient>
</defs>
</svg>
