<svg width="56" height="59" viewBox="0 0 56 59" fill="none" xmlns="http://www.w3.org/2000/svg">
<path d="M28.1875 26.6874C28.1875 31.9999 25 39.4374 25 39.4374M26.0625 28.8124C26.0625 28.8124 29.25 20.3124 21.8125 13.9374C14.375 7.56241 2.6875 9.68741 2.6875 9.68741C2.6875 9.68741 2.6875 18.1874 9.0625 24.5624C15.4375 30.9374 26.0625 28.8124 26.0625 28.8124ZM30.3125 22.4374C30.3125 22.4374 27.125 13.9374 34.5625 7.56241C42 1.18741 53.6875 3.31241 53.6875 3.31241C53.6875 3.31241 53.6875 11.8124 47.3125 18.1874C40.9375 24.5624 30.3125 22.4374 30.3125 22.4374ZM13.3125 37.3124H40.9375C40.9375 37.3124 43.0625 56.4374 27.125 56.4374C11.1875 56.4374 13.3125 37.3124 13.3125 37.3124Z" stroke="url(#paint0_linear_23_181)" stroke-width="4" stroke-linecap="round" stroke-linejoin="round"/>
<defs>
<linearGradient id="paint0_linear_23_181" x1="2.6875" y1="29.7049" x2="53.6875" y2="29.7049" gradientUnits="userSpaceOnUse">
<stop stop-color="#2AF598"/>
<stop offset="1" stop-color="#009EFD"/>
</linearGradient>
</defs>
</svg>
