<svg width="28" height="56" viewBox="0 0 28 56" fill="none" xmlns="http://www.w3.org/2000/svg">
<path d="M8.33366 19.5H19.667M8.33366 32.25C6.17306 33.4974 4.48443 35.4229 3.52969 37.7279C2.57496 40.0328 2.40745 42.5884 3.05317 44.9982C3.69889 47.4081 5.12173 49.5375 7.10104 51.0563C9.08034 52.5751 11.5055 53.3983 14.0003 53.3983C16.4952 53.3983 18.9203 52.5751 20.8996 51.0563C22.8789 49.5375 24.3018 47.4081 24.9475 44.9982C25.5932 42.5884 25.4257 40.0328 24.471 37.7279C23.5162 35.4229 21.8276 33.4974 19.667 32.25V8.16667C19.667 6.66377 19.07 5.22243 18.0073 4.15973C16.9446 3.09702 15.5032 2.5 14.0003 2.5C12.4974 2.5 11.0561 3.09702 9.99339 4.15973C8.93069 5.22243 8.33366 6.66377 8.33366 8.16667V32.25Z" stroke="url(#paint0_linear_23_183)" stroke-width="4" stroke-linecap="round" stroke-linejoin="round"/>
<defs>
<linearGradient id="paint0_linear_23_183" x1="2.66699" y1="27.9491" x2="25.3337" y2="27.9491" gradientUnits="userSpaceOnUse">
<stop stop-color="#2AF598"/>
<stop offset="1" stop-color="#009EFD"/>
</linearGradient>
</defs>
</svg>
