<svg width="64" height="64" viewBox="0 0 64 64" fill="none" xmlns="http://www.w3.org/2000/svg">
<path d="M32 2.25V6.7125" stroke="url(#paint0_linear_23_103)" stroke-width="4" stroke-linecap="round" stroke-linejoin="round"/>
<path fill-rule="evenodd" clip-rule="evenodd" d="M53.0372 10.9624L49.8809 14.1187L53.0358 10.9638L53.0372 10.9624Z" fill="url(#paint1_linear_23_103)"/>
<path d="M53.0372 10.9624L49.8809 14.1187" stroke="url(#paint2_linear_23_103)" stroke-width="4" stroke-linecap="round" stroke-linejoin="round"/>
<path d="M61.7496 32H57.2871" stroke="url(#paint3_linear_23_103)" stroke-width="4" stroke-linecap="round" stroke-linejoin="round"/>
<path fill-rule="evenodd" clip-rule="evenodd" d="M53.0372 53.0374L49.8809 49.8811L53.0358 53.036L53.0372 53.0374Z" fill="url(#paint4_linear_23_103)"/>
<path d="M53.0372 53.0374L49.8809 49.8811" stroke="url(#paint5_linear_23_103)" stroke-width="4" stroke-linecap="round" stroke-linejoin="round"/>
<path d="M32 61.7501V57.2876" stroke="url(#paint6_linear_23_103)" stroke-width="4" stroke-linecap="round" stroke-linejoin="round"/>
<path fill-rule="evenodd" clip-rule="evenodd" d="M10.9629 53.0374L14.1192 49.8811L10.9643 53.036L10.9629 53.0374Z" fill="url(#paint7_linear_23_103)"/>
<path d="M10.9629 53.0374L14.1192 49.8811" stroke="url(#paint8_linear_23_103)" stroke-width="4" stroke-linecap="round" stroke-linejoin="round"/>
<path d="M2.25 32H6.7125" stroke="url(#paint9_linear_23_103)" stroke-width="4" stroke-linecap="round" stroke-linejoin="round"/>
<path fill-rule="evenodd" clip-rule="evenodd" d="M10.9629 10.9624L14.1192 14.1187L10.9643 10.9638L10.9629 10.9624Z" fill="url(#paint10_linear_23_103)"/>
<path d="M10.9629 10.9624L14.1192 14.1187" stroke="url(#paint11_linear_23_103)" stroke-width="4" stroke-linecap="round" stroke-linejoin="round"/>
<path d="M32 49C41.3882 49 49 41.3882 49 32C49 22.6117 41.3882 15 32 15C22.6117 15 15 22.6117 15 32C15 41.3882 22.6117 49 32 49Z" stroke="url(#paint12_linear_23_103)" stroke-width="4" stroke-linejoin="round"/>
<defs>
<linearGradient id="paint0_linear_23_103" x1="32" y1="4.48125" x2="33" y2="4.48125" gradientUnits="userSpaceOnUse">
<stop stop-color="#2AF598"/>
<stop offset="1" stop-color="#009EFD"/>
</linearGradient>
<linearGradient id="paint1_linear_23_103" x1="49.8809" y1="12.5406" x2="53.0372" y2="12.5406" gradientUnits="userSpaceOnUse">
<stop stop-color="#2AF598"/>
<stop offset="1" stop-color="#009EFD"/>
</linearGradient>
<linearGradient id="paint2_linear_23_103" x1="49.8809" y1="12.5406" x2="53.0372" y2="12.5406" gradientUnits="userSpaceOnUse">
<stop stop-color="#2AF598"/>
<stop offset="1" stop-color="#009EFD"/>
</linearGradient>
<linearGradient id="paint3_linear_23_103" x1="57.2871" y1="32.5" x2="61.7496" y2="32.5" gradientUnits="userSpaceOnUse">
<stop stop-color="#2AF598"/>
<stop offset="1" stop-color="#009EFD"/>
</linearGradient>
<linearGradient id="paint4_linear_23_103" x1="49.8809" y1="51.4593" x2="53.0372" y2="51.4593" gradientUnits="userSpaceOnUse">
<stop stop-color="#2AF598"/>
<stop offset="1" stop-color="#009EFD"/>
</linearGradient>
<linearGradient id="paint5_linear_23_103" x1="49.8809" y1="51.4593" x2="53.0372" y2="51.4593" gradientUnits="userSpaceOnUse">
<stop stop-color="#2AF598"/>
<stop offset="1" stop-color="#009EFD"/>
</linearGradient>
<linearGradient id="paint6_linear_23_103" x1="32" y1="59.5188" x2="33" y2="59.5188" gradientUnits="userSpaceOnUse">
<stop stop-color="#2AF598"/>
<stop offset="1" stop-color="#009EFD"/>
</linearGradient>
<linearGradient id="paint7_linear_23_103" x1="10.9629" y1="51.4593" x2="14.1192" y2="51.4593" gradientUnits="userSpaceOnUse">
<stop stop-color="#2AF598"/>
<stop offset="1" stop-color="#009EFD"/>
</linearGradient>
<linearGradient id="paint8_linear_23_103" x1="10.9629" y1="51.4593" x2="14.1192" y2="51.4593" gradientUnits="userSpaceOnUse">
<stop stop-color="#2AF598"/>
<stop offset="1" stop-color="#009EFD"/>
</linearGradient>
<linearGradient id="paint9_linear_23_103" x1="2.25" y1="32.5" x2="6.7125" y2="32.5" gradientUnits="userSpaceOnUse">
<stop stop-color="#2AF598"/>
<stop offset="1" stop-color="#009EFD"/>
</linearGradient>
<linearGradient id="paint10_linear_23_103" x1="10.9629" y1="12.5406" x2="14.1192" y2="12.5406" gradientUnits="userSpaceOnUse">
<stop stop-color="#2AF598"/>
<stop offset="1" stop-color="#009EFD"/>
</linearGradient>
<linearGradient id="paint11_linear_23_103" x1="10.9629" y1="12.5406" x2="14.1192" y2="12.5406" gradientUnits="userSpaceOnUse">
<stop stop-color="#2AF598"/>
<stop offset="1" stop-color="#009EFD"/>
</linearGradient>
<linearGradient id="paint12_linear_23_103" x1="15" y1="32" x2="49" y2="32" gradientUnits="userSpaceOnUse">
<stop stop-color="#2AF598"/>
<stop offset="1" stop-color="#009EFD"/>
</linearGradient>
</defs>
</svg>
